<?xml version="1.0" encoding="UTF-8"?>
<!-- Generator: Adobe Illustrator 12.0.0, SVG Export Plug-In . SVG Version: 6.00 Build 51448)  -->
<!DOCTYPE svg PUBLIC "-//W3C//DTD SVG 1.1//EN" "http://www.w3.org/Graphics/SVG/1.1/DTD/svg11.dtd">
<svg version="1.1" id="Layer_1" xmlns="http://www.w3.org/2000/svg" xmlns:xlink="http://www.w3.org/1999/xlink" width="38.587" height="44.635" viewBox="0 0 38.587 44.635" overflow="visible" enable-background="new 0 0 38.587 44.635" xml:space="preserve">
<g>
	<path fill="#8CC641" stroke="#046132" stroke-width="0.4831" d="M27.263,3.073c1.035-0.529,2.303-0.572,3.418-0.002   c1.848,0.941,2.582,3.203,1.639,5.053c-0.943,1.846-3.205,2.578-5.053,1.637s-2.58-3.205-1.639-5.051   c0.111-0.219-0.725-0.92-0.832-1.059c-0.332-0.428-0.529-0.67-0.6-1.262C23.806-0.951,26.729,3.334,27.263,3.073z"/>
	
		<radialGradient id="XMLID_7_" cx="-954.1274" cy="821.4419" r="4.2567" gradientTransform="matrix(-0.9983 0.0576 0.0576 0.9983 -971.6755 -759.5807)" gradientUnits="userSpaceOnUse">
		<stop offset="0" style="stop-color:#FCEE23"/>
		<stop offset="1" style="stop-color:#076E3A"/>
	</radialGradient>
	<circle opacity="0.5" fill="url(#XMLID_7_)" enable-background="new    " cx="29.021" cy="6.41" r="3.159"/>
	<path fill="#8CC641" stroke="#046132" stroke-width="0.4831" d="M12.288,2.122c-0.778-0.865-1.946-1.357-3.19-1.223   C7.034,1.12,5.541,2.969,5.763,5.032c0.221,2.063,2.069,3.555,4.133,3.334c2.063-0.221,3.555-2.07,3.334-4.133   c-0.037-0.346,3.729-1.736,1.539-2.557C14.173,1.454,12.706,2.581,12.288,2.122z"/>
	
		<radialGradient id="XMLID_8_" cx="275.7148" cy="521.8608" r="4.2538" gradientTransform="matrix(0.9119 0.4105 -0.4105 0.9119 -26.6013 -584.9847)" gradientUnits="userSpaceOnUse">
		<stop offset="0" style="stop-color:#FCEE23"/>
		<stop offset="1" style="stop-color:#076E3A"/>
	</radialGradient>
	<circle opacity="0.5" fill="url(#XMLID_8_)" enable-background="new    " cx="9.453" cy="4.611" r="3.159"/>
	<ellipse opacity="0.75" fill="#BDBEC0" enable-background="new    " cx="18.984" cy="41.571" rx="18.429" ry="2.184"/>
	<path fill="#8CC641" stroke="#046132" stroke-width="0.4831" d="M24.868,5.702l-0.184-0.459c0.436-0.666,0.803-1.689,0.793-2.502   c-0.002-0.186-0.508-2.16-1.018-1.643c-0.582,0.592-0.664,3.586-1.107,3.771l-0.686,0.287c-1.039-0.189-2.109-0.287-3.204-0.287   c-0.808,0-1.603,0.053-2.382,0.158l-0.653-0.318c-0.079-0.455-0.573-1.916-0.885-2.939c-0.821-0.633-1.444-0.271-1.989,0.477   c0.438,0.928,1.074,2.439,1.383,2.838l-0.102,0.391C7.195,7.516,1.568,14.485,1.568,22.77c0,9.883,8.013,17.895,17.896,17.895   c9.882,0,17.896-8.012,17.896-17.895C37.36,14.768,32.11,7.993,24.868,5.702z"/>
	
		<radialGradient id="XMLID_9_" cx="19.2715" cy="-741.8198" r="32.7241" gradientTransform="matrix(1 0 0 -1 0.1128 -701.6338)" gradientUnits="userSpaceOnUse">
		<stop offset="0" style="stop-color:#CADB2A"/>
		<stop offset="0.6011" style="stop-color:#A7582D"/>
		<stop offset="1" style="stop-color:#0B6E3A"/>
	</radialGradient>
	<circle opacity="0.85" fill="url(#XMLID_9_)" stroke="#2D9145" stroke-width="0.4831" cx="19.384" cy="22.848" r="17.338"/>
	
		<radialGradient id="XMLID_10_" cx="569.7891" cy="137.9868" r="6.5844" gradientTransform="matrix(0.7944 0.6074 0.9008 -1.1782 -552.2382 -161.8815)" gradientUnits="userSpaceOnUse">
		<stop offset="0" style="stop-color:#7A7878"/>
		<stop offset="1" style="stop-color:#010101"/>
	</radialGradient>
	<path fill="url(#XMLID_10_)" d="M25.112,10.306c2.988,1.085,5.875,6.477,2.408,8.7c-3.537,2.268-7.416-2.498-6.523-5.838   c0.379-1.41,1.283-3.063,2.947-3.078C24.327,10.086,24.72,10.164,25.112,10.306z"/>
	<path fill="#19542A" d="M16.9,37.391c1.018-0.805,3.371-1.201,4.121,0.18c-1.185-0.535-2.619-0.85-3.85-0.248   c0.08-0.109,0.179-0.166,0.293-0.244"/>
	
		<radialGradient id="XMLID_11_" cx="13.5947" cy="66.9038" r="11.3908" gradientTransform="matrix(1 0 0 -1 0.0376 89.1895)" gradientUnits="userSpaceOnUse">
		<stop offset="0" style="stop-color:#7A7878"/>
		<stop offset="1" style="stop-color:#010101"/>
	</radialGradient>
	<path fill="url(#XMLID_11_)" d="M11.283,11.059c1.084-1.01,2.415-1.565,3.805-0.942c3.251,1.457,2.333,6.507,0.266,8.462   c-0.839,0.793-1.588,0.932-2.719,0.763C7.841,18.624,8.417,13.734,11.283,11.059z"/>
	
		<radialGradient id="XMLID_12_" cx="57.731" cy="-45.5747" r="5.0837" gradientTransform="matrix(0.956 0.2933 -0.2933 0.956 -49.5023 58.7432)" gradientUnits="userSpaceOnUse">
		<stop offset="0" style="stop-color:#20341C"/>
		<stop offset="1" style="stop-color:#076E3A"/>
	</radialGradient>
	<path fill="url(#XMLID_12_)" stroke="#20341C" stroke-width="0.5797" d="M17.236,35.104c-0.044-0.596,0.311-1.469,0.596-1.963   c0.456-0.789,1.233-1.49,2.084-0.826c0.697,0.543,1.248,2.541,0.675,3.311c-0.859-0.709-1.931-0.24-2.894-0.113   c-0.412,0.055-0.397,0.16-0.457-0.363C17.238,35.135,17.238,35.12,17.236,35.104z"/>
	<path fill="#FFFFFF" d="M12.249,11.341c-1.745,0.993,0.075,2.046,0.69,1.161c0.566-0.815-0.25-1.643-0.932-1.161"/>
	<path fill="#FFFFFF" d="M22.94,12.716c0.971,0.729,1.654-1.126,0.664-1.276C22.884,11.332,22.29,12.229,22.94,12.716z"/>
	<path fill="#FFFFFF" d="M21.892,13.909c-0.326,0.355-0.029,1.043,0.379,0.67c0.307-0.282,0.033-0.841-0.379-0.604"/>
	<circle opacity="0.31" fill="#C0272D" cx="9.824" cy="22.688" r="4.259"/>
	<circle opacity="0.31" fill="#C0272D" cx="29.097" cy="23.542" r="4.259"/>
	<path fill="#387A3B" d="M27.155,9.832c0.438-0.278,1.746,1.54,1.979,1.87c0.641,0.908,1.445,2.034,1.357,3.207   C30.544,13.6,29.642,8.249,27.155,9.832z"/>
	<path fill="#387A3B" d="M10.617,9.841c-2.094,0.444-3.168,3.136-3.703,4.867c0.912-1.237,1.606-2.556,2.857-3.522   c0.39-0.301,1.469-0.738,0.721-1.22"/>
	<path fill="#FFFFFF" d="M11.492,13.341c-0.42,0.445-0.264,0.742,0.219,0.856c0.357-0.307,0.24-0.62-0.094-0.856"/>
</g>
</svg>