<?xml version="1.0" encoding="UTF-8" standalone="no"?>
<!-- Created with Inkscape (http://www.inkscape.org/) -->
<svg xmlns:a="http://ns.adobe.com/AdobeSVGViewerExtensions/3.0/" xmlns:svg="http://www.w3.org/2000/svg" xmlns="http://www.w3.org/2000/svg" xmlns:xlink="http://www.w3.org/1999/xlink" version="1.0" width="256" height="256" id="svg2">
  <defs id="defs4">
    <linearGradient x1="-406.5" y1="512.5" x2="-406.5" y2="278.5" id="linearGradient2523" xlink:href="#XMLID_7_" gradientUnits="userSpaceOnUse" gradientTransform="matrix(1,0,0,-1,535.5,523.5)"/>
    <linearGradient x1="-506.4473" y1="494.4473" x2="-308.55249" y2="296.55249" id="linearGradient2525" xlink:href="#XMLID_8_" gradientUnits="userSpaceOnUse" gradientTransform="matrix(1,0,0,-1,535.5,523.5)"/>
  </defs>
  <g id="layer1">
    <g transform="translate(-226.28571,-358.64789)" id="g2501">
      <g transform="translate(226.28571,358.64789)" id="Layer_1">
    <path d="M 44,15.5 C 34.626,15.5 27,23.126 27,32.5 L 27,232.5 C 27,241.874 34.626,249.5 44,249.5 L 220,249.5 C 229.375,249.5 237,241.874 237,232.5 L 237,32.5 C 237,23.126 229.375,15.5 220,15.5 L 44,15.5 z" id="path1158" style="opacity:0.2"/>

    <path d="M 42,13.5 C 32.626,13.5 25,21.126 25,30.5 L 25,230.5 C 25,239.874 32.626,247.5 42,247.5 L 218,247.5 C 227.375,247.5 235,239.874 235,230.5 L 235,30.5 C 235,21.126 227.375,13.5 218,13.5 L 42,13.5 z" id="path1159" style="opacity:0.2"/>

    <path d="M 40,12.5 C 30.626,12.5 23,20.126 23,29.5 L 23,229.5 C 23,238.874 30.626,246.5 40,246.5 L 216,246.5 C 225.375,246.5 233,238.874 233,229.5 L 233,29.5 C 233,20.126 225.375,12.5 216,12.5 L 40,12.5 z" id="path1160" style="opacity:0.2"/>

    <linearGradient x1="-406.5" y1="512.5" x2="-406.5" y2="278.5" id="XMLID_7_" gradientUnits="userSpaceOnUse" gradientTransform="matrix(1,0,0,-1,535.5,523.5)">
      <stop id="stop1162" style="stop-color:#494949;stop-opacity:1" offset="0"/>

      <stop id="stop1163" style="stop-color:#000000;stop-opacity:1" offset="1"/>

      <a:midPointStop id="midPointStop1164" style="stop-color:#494949" offset="0"/>

      <a:midPointStop id="midPointStop1165" style="stop-color:#494949" offset="0.5"/>

      <a:midPointStop id="midPointStop1166" style="stop-color:#000000" offset="1"/>

    </linearGradient>

    <path d="M 41,11 C 31.626,11 24,18.626 24,28 L 24,228 C 24,237.374 31.626,245 41,245 L 217,245 C 226.375,245 234,237.374 234,228 L 234,28 C 234,18.626 226.375,11 217,11 L 41,11 z" id="path1167" style="fill:url(#linearGradient2523)"/>

    <path d="M 28,228 C 28,234.627 33.373,240 40,240 L 216,240 C 222.627,240 228,234.627 228,228 L 228,28 C 228,21.373 222.627,16 216,16 L 40,16 C 33.373,16 28,21.373 28,28 L 28,228 z" id="path1168" style="fill:#ffffff"/>

    <linearGradient x1="-506.4473" y1="494.4473" x2="-308.55249" y2="296.55249" id="XMLID_8_" gradientUnits="userSpaceOnUse" gradientTransform="matrix(1,0,0,-1,535.5,523.5)">
      <stop id="stop1170" style="stop-color:#ffffff;stop-opacity:1" offset="0"/>

      <stop id="stop1171" style="stop-color:#dadada;stop-opacity:1" offset="1"/>

      <a:midPointStop id="midPointStop1172" style="stop-color:#FFFFFF" offset="0"/>

      <a:midPointStop id="midPointStop1173" style="stop-color:#FFFFFF" offset="0.5"/>

      <a:midPointStop id="midPointStop1174" style="stop-color:#DADADA" offset="1"/>

    </linearGradient>

    <path d="M 40,21 C 36.14,21 33,24.14 33,28 L 33,228 C 33,231.859 36.14,235 40,235 L 216,235 C 219.859,235 223,231.859 223,228 L 223,28 C 223,24.14 219.859,21 216,21 L 40,21 z" id="path1175" style="fill:url(#linearGradient2525)"/>

    <rect width="256" height="256" x="0" y="0" id="_x3C_Slice_x3E_" style="fill:none"/>

  </g>
      <g id="g2494">
        <path d="M 423.30994,588.65897 L 283.90414,588.65897 L 283.90414,584.67459 L 391.27869,584.67459 L 391.27869,556.70584 L 283.90414,556.70584 L 283.90414,552.64334 L 391.27869,552.64334 L 391.27869,524.67459 L 283.90414,524.67459 L 283.90414,520.69022 L 391.27869,520.69022 L 391.27869,492.64334 L 283.90414,492.64334 L 283.90414,488.65897 L 391.27869,488.65897 L 391.27869,460.69022 L 283.90414,460.69022 L 283.90414,456.70584 L 423.30994,456.70584 L 423.30994,588.65897 z M 395.34119,492.64334 L 395.34119,520.69022 L 407.13806,520.69022 L 407.13806,492.64334 L 395.34119,492.64334 z M 395.34119,460.69022 L 395.34119,488.65897 L 407.13806,488.65897 L 407.13806,460.69022 L 395.34119,460.69022 z M 395.34119,524.67459 L 395.34119,552.64334 L 407.13806,552.64334 L 407.13806,524.67459 L 395.34119,524.67459 z M 407.13806,556.70584 L 395.34119,556.70584 L 395.34119,584.67459 L 407.13806,584.67459 L 407.13806,556.70584 z" id="path2459" style="fill:#000000;fill-opacity:1;stroke:none;stroke-width:1;stroke-linecap:butt;stroke-linejoin:miter;stroke-opacity:1;"/>
        <g id="g2489">
          <path d="M 367.4133,427.46997 C 367.41324,422.15972 365.88139,417.56418 362.81776,413.68335 C 359.34552,409.39434 355.29464,406.12641 350.66511,403.87953 C 349.43959,403.19888 348.23113,402.67125 347.03974,402.29662 C 345.84826,401.92234 344.63981,401.59896 343.41437,401.32645 C 342.12077,400.78197 339.66982,400.50964 336.06151,400.50947 C 330.47875,400.50964 325.1173,401.93937 319.97712,404.79864 C 314.83691,407.65825 310.63285,411.74317 307.36492,417.05341 C 306.46218,418.58068 305.57536,420.02008 305.11821,421.64895 C 304.58168,423.51589 304.43439,425.51706 304.30123,427.46997 L 300.93117,427.46997 C 301.47582,422.50013 302.19963,417.59165 304.09698,413.27486 C 304.92112,411.33409 306.29262,408.73054 307.41598,406.79004 C 308.53933,404.84987 309.84991,402.9606 311.34772,401.12221 C 313.04976,399.21609 314.76883,397.59914 316.50494,396.27136 C 318.24101,394.94394 320.30049,393.70144 322.68339,392.54387 C 326.83637,390.50159 331.29574,389.48036 336.06151,389.48018 C 341.23571,389.48036 345.89932,390.50159 350.05238,392.54387 C 352.0267,393.70144 353.91598,394.94394 355.72021,396.27136 C 357.52433,397.59914 359.14127,399.07992 360.57105,400.71372 C 363.77085,404.32224 366.23882,408.4412 367.97498,413.07061 C 369.711,417.70035 370.85138,422.50013 371.3961,427.46997 L 367.4133,427.46997 z" id="path2482" style="fill:#000000;fill-opacity:1;stroke:none;stroke-width:1;stroke-linecap:butt;stroke-linejoin:miter;stroke-opacity:1;"/>
          <path d="M 336.06151,427.46997 C 332.40024,427.33986 330.03625,425.88342 330.03625,422.31817 C 330.03625,418.89975 332.85557,417.05341 336.06151,417.05341 C 339.36452,417.10697 341.88253,419.50759 341.88253,422.31817 C 341.93408,425.92856 339.44117,427.46997 336.06151,427.46997 z" id="path2455" style="fill:#000000;fill-opacity:1;stroke:none;stroke-width:1;stroke-linecap:butt;stroke-linejoin:miter;stroke-opacity:1;"/>
          <path d="M 349.23539,429.20606 L 352.60545,429.20606 L 352.60545,551.75378 L 352.60545,554.40898 C 352.46924,554.74941 352.29903,555.12386 352.09484,555.53233 C 351.89054,555.94084 351.78842,556.41741 351.78847,556.96205 C 351.37993,557.77905 350.88633,558.6471 350.30768,559.56619 C 349.72894,560.48531 349.0311,561.42144 348.21416,562.37458 C 345.42275,565.57444 341.91653,568.43389 337.69548,570.95292 C 333.40628,573.19963 329.45752,574.32298 325.8492,574.32298 C 321.76426,574.32298 318.83673,573.84641 317.06662,572.89326 C 314.81989,572.14436 312.98168,570.61251 311.55197,568.29772 L 310.73498,564.11067 C 310.59881,563.36178 310.49669,562.78308 310.42861,562.37458 C 310.36052,561.9661 310.32648,561.69377 310.32649,561.55759 L 310.32649,558.39178 C 310.32648,554.23879 311.79024,550.35812 314.71778,546.74974 C 317.50913,543.54992 321.1345,540.92876 325.59389,538.88627 C 330.05324,536.84384 334.52963,535.82261 339.02308,535.82257 C 342.76755,535.82261 346.17165,536.74172 349.23539,538.5799 L 349.23539,429.20606 z M 323.50037,551.95802 C 322.81953,552.5027 321.98552,553.20054 320.99835,554.05155 C 320.01115,554.90259 318.90481,556.077 317.67935,557.57479 C 315.29647,560.77466 314.10503,563.22561 314.10505,564.92765 C 314.37736,566.6978 315.63688,567.88923 317.8836,568.50196 C 320.53878,568.50197 323.19398,567.78711 325.8492,566.35738 C 327.48314,565.67657 329.16817,564.84256 330.9043,563.85536 C 332.64036,562.86818 334.35943,561.76185 336.06151,560.53636 C 337.15079,559.71939 338.3252,558.71518 339.58476,557.52373 C 340.84424,556.33231 342.12077,554.95365 343.41437,553.38775 C 346.75035,550.05175 348.41836,547.26039 348.41841,545.01365 C 348.41836,543.37971 347.36309,542.1202 345.25259,541.2351 C 339.94215,541.23513 332.69142,544.80943 323.50037,551.95802 L 323.50037,551.95802 z" id="path2486" style="fill:#000000;fill-opacity:1;stroke:none;stroke-width:1;stroke-linecap:butt;stroke-linejoin:miter;stroke-opacity:1;"/>
        </g>
      </g>
    </g>
  </g>
</svg>